<?xml version="1.0" encoding="UTF-8"?>
<svg id="Layer_2" data-name="Layer 2" xmlns="http://www.w3.org/2000/svg" viewBox="0 0 335.13 352.94">
  <defs>
    <style>
      .cls-1 {
        fill: #fff;
        stroke-width: 0px;
      }
    </style>
  </defs>
  <g id="Layer_1-2" data-name="Layer 1">
    <path class="cls-1" d="M326.94,85.45c5.79-2.12,2.88-9.82-3.18-8.4-87.59,20.39-236.83,57.63-308.71,90.06-81.35,36.71,187.7,68.48,314.5,81.05,6.18.61,7.84-7.27,1.84-8.71l-243.54-58.09c-4.64-1.11-5.05-6.77-.61-8.39l239.7-87.52Z"/>
    <path class="cls-1" d="M95.41,352.93c18.35,1.08,68.81-281.42,98.33-327.22,1.41-2.19-11.22-20.1-21.44-23.42C143.58-7.04,22.83,13.7,17.75,36.22c-4.1,18.16,99.09,42.59,106.16,40.65,6.41-1.76-69.24-26.76-53.63-39.93,11.62-9.8,88.1-21.56,84.51-13.8-22.84,49.4-78.88,328.64-59.38,329.79Z"/>
  </g>
</svg>